<mxfile host="65bd71144e">
    <diagram id="lKOiRMlYlnAecIGtzMKI" name="PÃ¡gina-1">
        <mxGraphModel dx="728" dy="445" grid="1" gridSize="10" guides="1" tooltips="1" connect="1" arrows="1" fold="1" page="1" pageScale="1" pageWidth="827" pageHeight="1169" math="0" shadow="0">
            <root>
                <mxCell id="0"/>
                <mxCell id="1" parent="0"/>
                <mxCell id="2" value="Administradores" style="swimlane;" vertex="1" parent="1">
                    <mxGeometry x="40" y="20" width="200" height="200" as="geometry">
                        <mxRectangle x="280" y="130" width="130" height="23" as="alternateBounds"/>
                    </mxGeometry>
                </mxCell>
                <mxCell id="8" value="id: String&lt;br&gt;usuario: String&lt;br&gt;contrasenia: String&lt;br&gt;nombres: String&lt;br&gt;apellidos: String&lt;br&gt;tipo_documento: String&lt;br&gt;no_documento: int&lt;br&gt;correo: String&lt;br&gt;" style="text;html=1;align=center;verticalAlign=middle;resizable=0;points=[];autosize=1;strokeColor=none;" vertex="1" parent="2">
                    <mxGeometry x="30" y="40" width="140" height="110" as="geometry"/>
                </mxCell>
                <mxCell id="3" value="Docentes" style="swimlane;" vertex="1" parent="1">
                    <mxGeometry x="270" y="20" width="220" height="200" as="geometry"/>
                </mxCell>
                <mxCell id="11" value="id: String&lt;br&gt;usuario: String&lt;br&gt;contrasenia: String&lt;br&gt;nombres: String&lt;br&gt;apellidos: String&lt;br&gt;tipo_documento: String&lt;br&gt;no_documento: int&lt;br&gt;correo: String&lt;br&gt;codigo_docente: String&lt;br&gt;grupos: ???" style="text;html=1;align=center;verticalAlign=middle;resizable=0;points=[];autosize=1;strokeColor=none;" vertex="1" parent="3">
                    <mxGeometry x="40" y="35" width="140" height="140" as="geometry"/>
                </mxCell>
                <mxCell id="4" value="Estudiantes" style="swimlane;" vertex="1" parent="1">
                    <mxGeometry x="540" y="20" width="200" height="220" as="geometry"/>
                </mxCell>
                <mxCell id="12" value="id: String&lt;br&gt;usuario: String&lt;br&gt;contrasenia: String&lt;br&gt;nombres: String&lt;br&gt;apellidos: String&lt;br&gt;tipo_documento: String&lt;br&gt;no_documento: int&lt;br&gt;correo: String&lt;br&gt;codigo_estudiantil: String&lt;br&gt;id_programa: String&lt;br&gt;grupo: ???&lt;br&gt;ciclo: int&lt;br&gt;activos: boolean" style="text;html=1;align=center;verticalAlign=middle;resizable=0;points=[];autosize=1;strokeColor=none;" vertex="1" parent="4">
                    <mxGeometry x="25" y="31" width="150" height="180" as="geometry"/>
                </mxCell>
                <mxCell id="5" value="ProgramasInstitucionales" style="swimlane;" vertex="1" parent="1">
                    <mxGeometry x="40" y="250" width="200" height="200" as="geometry"/>
                </mxCell>
                <mxCell id="13" value="id: String&lt;br&gt;nombre_programa: String&lt;br&gt;codigo_programa: String&lt;br&gt;grupos: ???" style="text;html=1;strokeColor=none;fillColor=none;align=center;verticalAlign=middle;whiteSpace=wrap;rounded=0;" vertex="1" parent="5">
                    <mxGeometry x="25" y="80" width="150" height="20" as="geometry"/>
                </mxCell>
                <mxCell id="6" value="GruposPrograma" style="swimlane;" vertex="1" parent="1">
                    <mxGeometry x="270" y="250" width="200" height="200" as="geometry"/>
                </mxCell>
                <mxCell id="14" value="id: String&lt;br&gt;codigo: int&lt;br&gt;nombre: String&lt;br&gt;capacidad: int&lt;br&gt;id_programa: String&lt;br&gt;id_docente: String" style="text;html=1;strokeColor=none;fillColor=none;align=center;verticalAlign=middle;whiteSpace=wrap;rounded=0;" vertex="1" parent="6">
                    <mxGeometry x="40" y="80" width="140" height="20" as="geometry"/>
                </mxCell>
                <mxCell id="7" value="Calificaciones" style="swimlane;" vertex="1" parent="1">
                    <mxGeometry x="528" y="256" width="200" height="200" as="geometry"/>
                </mxCell>
                <mxCell id="15" value="&lt;br&gt;&lt;br&gt;id: String&lt;br&gt;id_grupo: String&lt;br&gt;id_docente: string&lt;br&gt;id_estudiante: String&lt;br&gt;fecha: Timestamp&lt;br&gt;calificacion: int" style="text;html=1;strokeColor=none;fillColor=none;align=center;verticalAlign=middle;whiteSpace=wrap;rounded=0;" vertex="1" parent="7">
                    <mxGeometry x="52" y="74" width="117" height="20" as="geometry"/>
                </mxCell>
            </root>
        </mxGraphModel>
    </diagram>
</mxfile>